<mxfile host="app.diagrams.net" agent="Mozilla/5.0 (Macintosh; Intel Mac OS X 10_15_7) AppleWebKit/537.36 (KHTML, like Gecko) Chrome/129.0.0.0 Safari/537.36" version="24.7.17">
  <diagram id="0o_vhkstpCKI-f3dBshT" name="Page-1">
    <mxGraphModel dx="1526" dy="1121" grid="1" gridSize="10" guides="1" tooltips="1" connect="1" arrows="1" fold="1" page="1" pageScale="1" pageWidth="1169" pageHeight="827" math="0" shadow="0">
      <root>
        <mxCell id="0" />
        <mxCell id="1" parent="0" />
        <mxCell id="f9LvFph6c_8vfK9_kLuQ-5" value="" style="group" parent="1" vertex="1" connectable="0">
          <mxGeometry x="120" y="399" width="240" height="270" as="geometry" />
        </mxCell>
        <mxCell id="f9LvFph6c_8vfK9_kLuQ-4" value="" style="whiteSpace=wrap;html=1;aspect=fixed;fillColor=none;strokeColor=#999999;" parent="f9LvFph6c_8vfK9_kLuQ-5" vertex="1">
          <mxGeometry width="240" height="240" as="geometry" />
        </mxCell>
        <mxCell id="f9LvFph6c_8vfK9_kLuQ-1" value="Proxmox cluster node 1&lt;br&gt;vhs01-htznr-FINLAND" style="shape=image;html=1;verticalAlign=middle;verticalLabelPosition=middle;labelBackgroundColor=#ffffff;imageAspect=0;aspect=fixed;image=https://cdn4.iconfinder.com/data/icons/logos-brands-5/24/proxmox-128.png;labelPosition=right;align=left;fontSize=9;fontStyle=1;spacing=2;spacingBottom=-8;" parent="f9LvFph6c_8vfK9_kLuQ-5" vertex="1">
          <mxGeometry width="16.216216216216218" height="16.216216216216218" as="geometry" />
        </mxCell>
        <mxCell id="f9LvFph6c_8vfK9_kLuQ-47" value="tw-vm-gw01-htznr-fin" style="points=[[0.5,0,0],[1,0.5,0],[0.5,1,0],[0,0.5,0],[0.145,0.145,0],[0.8555,0.145,0],[0.855,0.8555,0],[0.145,0.855,0]];verticalLabelPosition=bottom;html=1;verticalAlign=top;aspect=fixed;align=center;pointerEvents=1;shape=mxgraph.cisco19.rect;prIcon=secure_router;fillColor=#FAFAFA;strokeColor=#333333;fontSize=10;" parent="f9LvFph6c_8vfK9_kLuQ-5" vertex="1">
          <mxGeometry x="150" y="40" width="50" height="50" as="geometry" />
        </mxCell>
        <mxCell id="f9LvFph6c_8vfK9_kLuQ-13" value="&lt;p style=&quot;line-height: 190%&quot;&gt;&lt;/p&gt;&lt;div&gt;&lt;/div&gt;VLAN4090, 10.222.209.0/24: proxmox services interconnect&lt;br&gt;&lt;p&gt;&lt;/p&gt;" style="line;strokeWidth=2;html=1;perimeter=backbonePerimeter;points=[];outlineConnect=0;strokeColor=#333333;spacingTop=0;verticalAlign=bottom;spacing=0;labelBackgroundColor=none;align=center;labelPosition=center;verticalLabelPosition=top;spacingBottom=-18;spacingRight=190;" parent="1" vertex="1">
          <mxGeometry x="80" y="790" width="640" height="10" as="geometry" />
        </mxCell>
        <mxCell id="f9LvFph6c_8vfK9_kLuQ-14" value="&lt;p style=&quot;line-height: 190%&quot;&gt;&lt;/p&gt;&lt;div&gt;&lt;/div&gt;VLAN4011, 10.222.11.0/24: 1st production net&lt;br&gt;&lt;p&gt;&lt;/p&gt;" style="line;strokeWidth=2;html=1;perimeter=backbonePerimeter;points=[];outlineConnect=0;strokeColor=#333333;spacingTop=0;verticalAlign=bottom;spacing=0;labelBackgroundColor=none;align=center;labelPosition=center;verticalLabelPosition=top;spacingBottom=-18;spacingRight=190;" parent="1" vertex="1">
          <mxGeometry x="80" y="770" width="640" height="10" as="geometry" />
        </mxCell>
        <mxCell id="f9LvFph6c_8vfK9_kLuQ-15" value="&lt;p style=&quot;line-height: 190%&quot;&gt;&lt;/p&gt;&lt;div&gt;&lt;/div&gt;VLAN4002, 10.222.2.0/24: 2nd test only net&lt;br&gt;&lt;p&gt;&lt;/p&gt;" style="line;strokeWidth=2;html=1;perimeter=backbonePerimeter;points=[];outlineConnect=0;strokeColor=#333333;spacingTop=0;verticalAlign=bottom;spacing=0;labelBackgroundColor=none;align=center;labelPosition=center;verticalLabelPosition=top;spacingBottom=-18;spacingRight=190;" parent="1" vertex="1">
          <mxGeometry x="80" y="750" width="640" height="10" as="geometry" />
        </mxCell>
        <mxCell id="f9LvFph6c_8vfK9_kLuQ-16" value="&lt;p style=&quot;line-height: 190%&quot;&gt;&lt;/p&gt;&lt;div&gt;&lt;/div&gt;VLAN4000, 10.222.208.0/24: proxmox cluster interconnect&lt;br&gt;&lt;p&gt;&lt;/p&gt;" style="line;strokeWidth=2;html=1;perimeter=backbonePerimeter;points=[];outlineConnect=0;strokeColor=#333333;spacingTop=0;verticalAlign=bottom;spacing=0;labelBackgroundColor=none;align=center;labelPosition=center;verticalLabelPosition=top;spacingBottom=-18;spacingRight=80;" parent="1" vertex="1">
          <mxGeometry x="80" y="730" width="640" height="10" as="geometry" />
        </mxCell>
        <mxCell id="f9LvFph6c_8vfK9_kLuQ-17" value="&lt;p style=&quot;line-height: 190%&quot;&gt;&lt;/p&gt;&lt;div&gt;&lt;/div&gt;VLAN4010, 10.222.1.0/24: 1st test and stage net&lt;br&gt;&lt;p&gt;&lt;/p&gt;" style="line;strokeWidth=2;html=1;perimeter=backbonePerimeter;points=[];outlineConnect=0;strokeColor=#333333;spacingTop=0;verticalAlign=bottom;spacing=0;labelBackgroundColor=none;align=center;labelPosition=center;verticalLabelPosition=top;spacingBottom=-18;spacingRight=120;" parent="1" vertex="1">
          <mxGeometry x="80" y="710" width="640" height="10" as="geometry" />
        </mxCell>
        <mxCell id="f9LvFph6c_8vfK9_kLuQ-18" value="" style="orthogonalLoop=1;jettySize=auto;html=1;endArrow=none;strokeWidth=1;fontColor=#000000;fontSize=12;verticalAlign=top;strokeColor=#000000;fillColor=#ffffff;spacingTop=4;" parent="1" source="f9LvFph6c_8vfK9_kLuQ-17" edge="1">
          <mxGeometry relative="1" as="geometry">
            <mxPoint x="200" y="641" as="targetPoint" />
            <mxPoint x="210" y="804" as="sourcePoint" />
          </mxGeometry>
        </mxCell>
        <mxCell id="f9LvFph6c_8vfK9_kLuQ-19" value="" style="orthogonalLoop=1;jettySize=auto;html=1;endArrow=none;strokeWidth=1;fontColor=#000000;fontSize=12;verticalAlign=top;strokeColor=#000000;fillColor=#ffffff;spacingTop=4;entryX=0.25;entryY=1;entryDx=0;entryDy=0;" parent="1" source="f9LvFph6c_8vfK9_kLuQ-16" target="f9LvFph6c_8vfK9_kLuQ-4" edge="1">
          <mxGeometry relative="1" as="geometry">
            <mxPoint x="260" y="650" as="targetPoint" />
            <mxPoint x="260" y="734" as="sourcePoint" />
          </mxGeometry>
        </mxCell>
        <mxCell id="f9LvFph6c_8vfK9_kLuQ-20" value="" style="orthogonalLoop=1;jettySize=auto;html=1;endArrow=none;strokeWidth=1;fontColor=#000000;fontSize=12;verticalAlign=top;strokeColor=#000000;fillColor=#ffffff;spacingTop=4;entryX=0.165;entryY=0.997;entryDx=0;entryDy=0;entryPerimeter=0;" parent="1" source="f9LvFph6c_8vfK9_kLuQ-15" target="f9LvFph6c_8vfK9_kLuQ-4" edge="1">
          <mxGeometry relative="1" as="geometry">
            <mxPoint x="255" y="640" as="targetPoint" />
            <mxPoint x="278" y="724" as="sourcePoint" />
          </mxGeometry>
        </mxCell>
        <mxCell id="f9LvFph6c_8vfK9_kLuQ-21" value="" style="orthogonalLoop=1;jettySize=auto;html=1;endArrow=none;strokeWidth=1;fontColor=#000000;fontSize=12;verticalAlign=top;strokeColor=#000000;fillColor=#ffffff;spacingTop=4;entryX=0.085;entryY=1.006;entryDx=0;entryDy=0;entryPerimeter=0;" parent="1" source="f9LvFph6c_8vfK9_kLuQ-14" target="f9LvFph6c_8vfK9_kLuQ-4" edge="1">
          <mxGeometry relative="1" as="geometry">
            <mxPoint x="160" y="650" as="targetPoint" />
            <mxPoint x="265" y="764" as="sourcePoint" />
          </mxGeometry>
        </mxCell>
        <mxCell id="f9LvFph6c_8vfK9_kLuQ-22" value="" style="orthogonalLoop=1;jettySize=auto;html=1;endArrow=none;strokeWidth=1;fontColor=#000000;fontSize=12;verticalAlign=top;strokeColor=#000000;fillColor=#ffffff;spacingTop=4;entryX=0;entryY=1;entryDx=0;entryDy=0;" parent="1" source="f9LvFph6c_8vfK9_kLuQ-13" target="f9LvFph6c_8vfK9_kLuQ-4" edge="1">
          <mxGeometry relative="1" as="geometry">
            <mxPoint x="200" y="641" as="targetPoint" />
            <mxPoint x="250" y="784" as="sourcePoint" />
          </mxGeometry>
        </mxCell>
        <mxCell id="f9LvFph6c_8vfK9_kLuQ-52" value="tw-vpn-gw-AZURE&lt;br&gt;137.117.98.174" style="points=[[0.5,0,0],[1,0.5,0],[0.5,1,0],[0,0.5,0],[0.145,0.145,0],[0.8555,0.145,0],[0.855,0.8555,0],[0.145,0.855,0]];verticalLabelPosition=bottom;html=1;verticalAlign=top;aspect=fixed;align=center;pointerEvents=1;shape=mxgraph.cisco19.rect;prIcon=secure_router;fillColor=#FAFAFA;strokeColor=#333333;fontSize=10;" parent="1" vertex="1">
          <mxGeometry x="340" y="70" width="50" height="50" as="geometry" />
        </mxCell>
        <mxCell id="f9LvFph6c_8vfK9_kLuQ-53" value="tw-vpn-gw-AWS&lt;br&gt;52.0.218.239" style="points=[[0.5,0,0],[1,0.5,0],[0.5,1,0],[0,0.5,0],[0.145,0.145,0],[0.8555,0.145,0],[0.855,0.8555,0],[0.145,0.855,0]];verticalLabelPosition=bottom;html=1;verticalAlign=top;aspect=fixed;align=center;pointerEvents=1;shape=mxgraph.cisco19.rect;prIcon=secure_router;fillColor=#FAFAFA;strokeColor=#333333;fontSize=10;" parent="1" vertex="1">
          <mxGeometry x="510" y="170" width="50" height="50" as="geometry" />
        </mxCell>
        <mxCell id="f9LvFph6c_8vfK9_kLuQ-57" value="Tranwall VPN&lt;br&gt;users" style="verticalLabelPosition=bottom;html=1;fillColor=#333333;verticalAlign=top;pointerEvents=1;align=center;points=[[0.25,0,0],[0.5,0,0],[0.75,0,0],[1,0.5,0],[0.75,1,0],[0.5,1,0],[0.25,1,0],[0,0.5,0],[0.125,0.25,0],[0.125,0.75,0],[0.875,0.25,0],[0.875,0.75,0]];shape=mxgraph.cisco_safe.design.users;strokeColor=#333333;strokeWidth=2;fontSize=9;" parent="1" vertex="1">
          <mxGeometry x="200" y="70" width="50" height="50" as="geometry" />
        </mxCell>
        <mxCell id="f9LvFph6c_8vfK9_kLuQ-61" value="INTERNET" style="outlineConnect=0;dashed=0;verticalLabelPosition=top;verticalAlign=bottom;align=left;html=1;shape=mxgraph.aws3.internet_2;fillColor=#B3B3B3;gradientColor=none;strokeColor=#333333;strokeWidth=2;fontSize=9;labelPosition=right;spacingBottom=-13;spacingLeft=-47;" parent="1" vertex="1">
          <mxGeometry x="240" y="290" width="110" height="70" as="geometry" />
        </mxCell>
        <mxCell id="f9LvFph6c_8vfK9_kLuQ-63" value="" style="edgeStyle=none;rounded=0;orthogonalLoop=1;jettySize=auto;html=1;strokeColor=#000000;strokeWidth=1;fontSize=9;align=right;endArrow=none;endFill=0;" parent="1" source="f9LvFph6c_8vfK9_kLuQ-47" target="f9LvFph6c_8vfK9_kLuQ-61" edge="1">
          <mxGeometry relative="1" as="geometry" />
        </mxCell>
        <mxCell id="f9LvFph6c_8vfK9_kLuQ-64" value="" style="edgeStyle=none;rounded=0;orthogonalLoop=1;jettySize=auto;html=1;strokeColor=#000000;strokeWidth=1;fontSize=9;align=right;endArrow=none;endFill=0;entryX=0;entryY=0.5;entryDx=0;entryDy=0;entryPerimeter=0;exitX=0.38;exitY=0.025;exitDx=0;exitDy=0;exitPerimeter=0;" parent="1" source="f9LvFph6c_8vfK9_kLuQ-61" target="f9LvFph6c_8vfK9_kLuQ-52" edge="1">
          <mxGeometry relative="1" as="geometry">
            <mxPoint x="305" y="449" as="sourcePoint" />
            <mxPoint x="305" y="370" as="targetPoint" />
          </mxGeometry>
        </mxCell>
        <mxCell id="f9LvFph6c_8vfK9_kLuQ-65" value="" style="outlineConnect=0;fontColor=#232F3E;gradientColor=#B3B3B3;gradientDirection=north;fillColor=#333333;strokeColor=#ffffff;dashed=0;verticalLabelPosition=bottom;verticalAlign=top;align=center;html=1;fontSize=12;fontStyle=0;aspect=fixed;shape=mxgraph.aws4.resourceIcon;resIcon=mxgraph.aws4.backup;" parent="1" vertex="1">
          <mxGeometry x="820" y="190" width="78" height="78" as="geometry" />
        </mxCell>
        <mxCell id="f9LvFph6c_8vfK9_kLuQ-66" value="" style="shadow=0;dashed=0;html=1;strokeColor=none;fillColor=#B3B3B3;labelPosition=center;verticalLabelPosition=bottom;verticalAlign=top;align=center;outlineConnect=0;shape=mxgraph.veeam.2d.backup_from_storage_snapshots;fontSize=9;" parent="1" vertex="1">
          <mxGeometry x="636" y="200" width="44.8" height="44.8" as="geometry" />
        </mxCell>
        <mxCell id="f9LvFph6c_8vfK9_kLuQ-72" value="FBN" style="outlineConnect=0;fontColor=#232F3E;gradientColor=none;fillColor=#333333;strokeColor=none;dashed=0;verticalLabelPosition=bottom;verticalAlign=top;align=center;html=1;fontSize=12;fontStyle=0;aspect=fixed;pointerEvents=1;shape=mxgraph.aws4.bank;" parent="1" vertex="1">
          <mxGeometry x="110" y="160" width="50" height="50" as="geometry" />
        </mxCell>
        <mxCell id="f9LvFph6c_8vfK9_kLuQ-73" value="" style="outlineConnect=0;fontColor=#232F3E;gradientColor=none;fillColor=#333333;strokeColor=none;dashed=0;verticalLabelPosition=bottom;verticalAlign=top;align=center;html=1;fontSize=12;fontStyle=0;aspect=fixed;pointerEvents=1;shape=mxgraph.aws4.bank;" parent="1" vertex="1">
          <mxGeometry x="210" y="170" width="50" height="50" as="geometry" />
        </mxCell>
        <mxCell id="f9LvFph6c_8vfK9_kLuQ-76" value="NIA Egypt" style="shape=mxgraph.gcp.networking.cloud_partner_interconnect;html=1;fillColor=#333333;gradientColor=#B3B3B3;strokeColor=none;verticalLabelPosition=bottom;verticalAlign=top;align=center;fontSize=9;" parent="1" vertex="1">
          <mxGeometry x="680" y="65" width="65" height="60" as="geometry" />
        </mxCell>
        <mxCell id="f9LvFph6c_8vfK9_kLuQ-77" value="NI Dubai" style="shape=mxgraph.gcp.networking.cloud_partner_interconnect;html=1;fillColor=#333333;gradientColor=#B3B3B3;strokeColor=none;verticalLabelPosition=bottom;verticalAlign=top;align=center;fontSize=9;" parent="1" vertex="1">
          <mxGeometry x="826.5" y="60" width="65" height="60" as="geometry" />
        </mxCell>
        <mxCell id="Tj0ha3wsAgRvRHFYblVI-1" value="10.99.96.0 - 10.99.99.255" style="text;html=1;align=center;verticalAlign=middle;resizable=0;points=[];autosize=1;strokeColor=none;fillColor=none;" parent="1" vertex="1">
          <mxGeometry x="530" y="448" width="160" height="30" as="geometry" />
        </mxCell>
      </root>
    </mxGraphModel>
  </diagram>
</mxfile>
